<?xml version="1.0" encoding="UTF-8" standalone="no"?>
<!-- Created with Inkscape (http://www.inkscape.org/) -->

<svg
   xmlns:dc="http://purl.org/dc/elements/1.1/"
   xmlns:cc="http://creativecommons.org/ns#"
   xmlns:rdf="http://www.w3.org/1999/02/22-rdf-syntax-ns#"
   xmlns:svg="http://www.w3.org/2000/svg"
   xmlns="http://www.w3.org/2000/svg"
   xmlns:xlink="http://www.w3.org/1999/xlink"
   xmlns:sodipodi="http://sodipodi.sourceforge.net/DTD/sodipodi-0.dtd"
   xmlns:inkscape="http://www.inkscape.org/namespaces/inkscape"
   width="1052.3622"
   height="744.09448"
   id="svg8831"
   version="1.1"
   inkscape:version="0.48.4 r9939"
   sodipodi:docname="graph.svg">
  <defs
     id="defs3" />
  <sodipodi:namedview
     inkscape:document-units="mm"
     id="base"
     pagecolor="#ffffff"
     bordercolor="#666666"
     borderopacity="1.0"
     inkscape:pageopacity="0.0"
     inkscape:pageshadow="2"
     inkscape:zoom="1.23909"
     inkscape:cx="526.18109"
     inkscape:cy="372.04724"
     inkscape:current-layer="layer2"
     showgrid="false"
     units="mm"
     inkscape:window-width="1920"
     inkscape:window-height="1124"
     inkscape:window-x="0"
     inkscape:window-y="24"
     inkscape:window-maximized="1" />
  <metadata
     id="metadata4">
    <rdf:RDF>
      <cc:Work
         rdf:about="">
        <dc:format>image/svg+xml</dc:format>
        <dc:type
           rdf:resource="http://purl.org/dc/dcmitype/StillImage" />
        <dc:title></dc:title>
      </cc:Work>
    </rdf:RDF>
  </metadata>
  <g
     inkscape:label="Layer 1"
     inkscape:groupmode="layer"
     id="layer1"
     transform="translate(0,-308.2677)">
    <path
       style="fill:none;stroke:#c8c8ff;stroke-width:1px;stroke-linecap:butt;stroke-linejoin:miter;stroke-opacity:1"
       d="m 141.08268,337.92 0,619.07604"
       id="path8847"
       inkscape:connector-curvature="0" />
    <path
       style="fill:none;stroke:#c8c8ff;stroke-width:1px;stroke-linecap:butt;stroke-linejoin:miter;stroke-opacity:1"
       d="m 247.38189,337.92 0,619.07604"
       id="path8847-2"
       inkscape:connector-curvature="0" />
    <path
       style="fill:none;stroke:#c8c8ff;stroke-width:1px;stroke-linecap:butt;stroke-linejoin:miter;stroke-opacity:1"
       d="m 459.98031,337.92 0,619.07604"
       id="path8847-28"
       inkscape:connector-curvature="0" />
    <path
       style="fill:none;stroke:#c8c8ff;stroke-width:1px;stroke-linecap:butt;stroke-linejoin:miter;stroke-opacity:1"
       d="m 566.27953,337.92 0,619.07604"
       id="path8847-9"
       inkscape:connector-curvature="0" />
    <path
       style="fill:none;stroke:#c8c8ff;stroke-width:1px;stroke-linecap:butt;stroke-linejoin:miter;stroke-opacity:1"
       d="m 353.6811,337.92 0,619.07604"
       id="path8847-7"
       inkscape:connector-curvature="0" />
    <path
       style="fill:none;stroke:#c8c8ff;stroke-width:1px;stroke-linecap:butt;stroke-linejoin:miter;stroke-opacity:1"
       d="m 991.47638,337.92 0,619.07604"
       id="path8847-3"
       inkscape:connector-curvature="0" />
    <path
       style="fill:none;stroke:#c8c8ff;stroke-width:1px;stroke-linecap:butt;stroke-linejoin:miter;stroke-opacity:1"
       d="m 672.57874,337.92 0,619.07604"
       id="path8847-3-6"
       inkscape:connector-curvature="0" />
    <path
       style="fill:none;stroke:#c8c8ff;stroke-width:1px;stroke-linecap:butt;stroke-linejoin:miter;stroke-opacity:1"
       d="m 885.17717,337.92 0,619.07604"
       id="path8847-3-1"
       inkscape:connector-curvature="0" />
    <path
       style="fill:none;stroke:#c8c8ff;stroke-width:1px;stroke-linecap:butt;stroke-linejoin:miter;stroke-opacity:1"
       d="m 778.87795,337.92 0,619.07604"
       id="path8847-3-2"
       inkscape:connector-curvature="0" />
    <path
       style="fill:none;stroke:#c8c8ff;stroke-width:1px;stroke-linecap:butt;stroke-linejoin:miter;stroke-opacity:1"
       d="m 123.34134,939.27951 867.13027,0"
       id="path8957"
       inkscape:connector-curvature="0" />
    <path
       style="fill:none;stroke:#c8c8ff;stroke-width:1px;stroke-linecap:butt;stroke-linejoin:miter;stroke-opacity:1"
       d="m 123.36614,838.89762 867.13027,0"
       id="path8957-9"
       inkscape:connector-curvature="0" />
    <path
       style="fill:none;stroke:#c8c8ff;stroke-width:1px;stroke-linecap:butt;stroke-linejoin:miter;stroke-opacity:1"
       d="m 123.36614,738.51573 867.13027,0"
       id="path8957-3"
       inkscape:connector-curvature="0" />
    <path
       style="fill:none;stroke:#c8c8ff;stroke-width:1px;stroke-linecap:butt;stroke-linejoin:miter;stroke-opacity:1"
       d="m 123.36614,638.0984 867.13027,0"
       id="path8957-1"
       inkscape:connector-curvature="0" />
    <path
       style="fill:none;stroke:#c8c8ff;stroke-width:1px;stroke-linecap:butt;stroke-linejoin:miter;stroke-opacity:1"
       d="m 123.36614,537.71651 867.13027,0"
       id="path8957-94"
       inkscape:connector-curvature="0" />
    <path
       style="fill:none;stroke:#c8c8ff;stroke-width:0.99999994000000003px;stroke-linecap:butt;stroke-linejoin:miter;stroke-opacity:1"
       d="m 123.35612,336.9173 867.13027,0"
       id="path8957-7"
       inkscape:connector-curvature="0" />
    <path
       style="fill:none;stroke:#c8c8ff;stroke-width:1px;stroke-linecap:butt;stroke-linejoin:miter;stroke-opacity:1"
       d="m 123.36614,437.33462 867.13027,0"
       id="path8957-94-8"
       inkscape:connector-curvature="0" />
    <flowRoot
       xml:space="preserve"
       id="flowRoot9023"
       style="font-size:28px;font-style:normal;font-variant:normal;font-weight:bold;font-stretch:normal;text-align:start;line-height:125%;letter-spacing:0px;word-spacing:0px;writing-mode:lr-tb;text-anchor:start;fill:#000000;fill-opacity:1;stroke:none;font-family:Sans;-inkscape-font-specification:Sans Bold"
       transform="translate(86.961594,314.2677)"><flowRegion
         id="flowRegion9025"><rect
           id="rect9027"
           width="213.86664"
           height="45.194458"
           x="432.57553"
           y="685.1803"
           style="font-size:28px;font-style:normal;font-variant:normal;font-weight:bold;font-stretch:normal;text-align:start;line-height:125%;writing-mode:lr-tb;text-anchor:start;font-family:Sans;-inkscape-font-specification:Sans Bold" /></flowRegion><flowPara
         id="flowPara9029">Date</flowPara></flowRoot>    <flowRoot
       transform="matrix(0,-1,1,0,-677.84754,1122.8453)"
       xml:space="preserve"
       id="flowRoot9023-4"
       style="font-size:28px;font-style:normal;font-variant:normal;font-weight:bold;font-stretch:normal;text-align:start;line-height:125%;letter-spacing:0px;word-spacing:0px;writing-mode:lr-tb;text-anchor:start;fill:#000000;fill-opacity:1;stroke:none;font-family:Sans;-inkscape-font-specification:Sans Bold"><flowRegion
         id="flowRegion9025-5"><rect
           id="rect9027-0"
           width="213.86664"
           height="45.194458"
           x="432.57553"
           y="685.1803"
           style="font-size:28px;font-style:normal;font-variant:normal;font-weight:bold;font-stretch:normal;text-align:start;line-height:125%;writing-mode:lr-tb;text-anchor:start;font-family:Sans;-inkscape-font-specification:Sans Bold" /></flowRegion><flowPara
         id="flowPara9029-3">Mood</flowPara></flowRoot>    <use
       id="use9427-8"
       y="31"
       x="23"
       xlink:href="#happy-1"
       width="1"
       height="1"
       transform="matrix(2.4407245,0,0,2.4407245,-300.03572,641.27491)" />
    <use
       id="use12316-9"
       y="31"
       x="39"
       xlink:href="#sad-46"
       width="1"
       height="1"
       transform="matrix(2.4407245,0,0,2.4407245,-339.08732,717.73876)" />
    <use
       id="use12897-4"
       y="31"
       x="31"
       xlink:href="#neutral-19"
       width="1"
       height="1"
       transform="matrix(2.4407245,0,0,2.4407245,-318.34116,680.11702)" />
    <use
       id="use10003-3"
       y="31"
       x="47"
       xlink:href="#very_sad-0"
       width="1"
       height="1"
       transform="matrix(2.4407245,0,0,2.4407245,-358.64425,754.79387)" />
    <use
       id="use14473-8"
       y="31"
       x="15"
       xlink:href="#very_happy-5"
       width="1"
       height="1"
       transform="matrix(2.4407245,0,0,2.4407245,-280.50993,603.65311)" />
    <g
       transform="matrix(0.18117334,0,0,0.18117334,-5.9234611,333.76783)"
       id="use9843">
      <path
         inkscape:connector-curvature="0"
         id="path9847"
         style="fill:#d55e00;fill-opacity:1;stroke:#000000;stroke-width:1.34717631;stroke-miterlimit:4;stroke-opacity:1;stroke-dasharray:none;stroke-dashoffset:0"
         d="m 355.06007,389.66882 a 117.92609,117.92609 0 1 1 -235.85217,0 117.92609,117.92609 0 1 1 235.85217,0 z"
         transform="translate(263.68477,181.97591)" />
      <path
         inkscape:connector-curvature="0"
         id="path9849"
         style="fill:#000000;fill-opacity:1;stroke:#000000;stroke-width:3.3679409;stroke-miterlimit:4;stroke-opacity:1;stroke-dasharray:none;stroke-dashoffset:0"
         d="m 158.94386,167.2756 a 14.740765,14.740765 0 1 1 -29.48153,0 14.740765,14.740765 0 1 1 29.48153,0 z"
         transform="translate(318.48195,359.50594)" />
      <path
         inkscape:connector-curvature="0"
         id="path9851"
         transform="translate(394.74938,359.50594)"
         d="m 158.94386,167.2756 a 14.740765,14.740765 0 1 1 -29.48153,0 14.740765,14.740765 0 1 1 29.48153,0 z"
         style="fill:#000000;fill-opacity:1;stroke:#000000;stroke-width:3.3679409;stroke-miterlimit:4;stroke-opacity:1;stroke-dasharray:none;stroke-dashoffset:0" />
      <path
         inkscape:connector-curvature="0"
         id="path9853"
         style="fill:#000000;fill-opacity:1;stroke:#000000;stroke-width:2.97917175;stroke-linejoin:round;stroke-miterlimit:4;stroke-opacity:1;stroke-dasharray:none;stroke-dashoffset:0"
         d="m 560,792.36218 a 60,60 0 1 1 -120,0"
         transform="matrix(1.2780205,0,0,1,-138.19148,-217.5)" />
    </g>
    <g
       id="use9885"
       transform="matrix(0.18117334,0,0,0.18117334,48.42854,461.32573)">
      <path
         transform="translate(-36.315225,31.975913)"
         d="m 355.06007,389.66882 a 117.92609,117.92609 0 1 1 -235.85217,0 117.92609,117.92609 0 1 1 235.85217,0 z"
         style="fill:#e69f00;fill-opacity:1;stroke:#000000;stroke-width:1.34717631;stroke-miterlimit:4;stroke-opacity:1;stroke-dasharray:none;stroke-dashoffset:0"
         id="path9889"
         inkscape:connector-curvature="0" />
      <path
         transform="translate(18.481953,209.50594)"
         d="m 158.94386,167.2756 a 14.740765,14.740765 0 1 1 -29.48153,0 14.740765,14.740765 0 1 1 29.48153,0 z"
         style="fill:#000000;fill-opacity:1;stroke:#000000;stroke-width:3.3679409;stroke-miterlimit:4;stroke-opacity:1;stroke-dasharray:none;stroke-dashoffset:0"
         id="path9891"
         inkscape:connector-curvature="0" />
      <path
         style="fill:#000000;fill-opacity:1;stroke:#000000;stroke-width:3.3679409;stroke-miterlimit:4;stroke-opacity:1;stroke-dasharray:none;stroke-dashoffset:0"
         d="m 158.94386,167.2756 a 14.740765,14.740765 0 1 1 -29.48153,0 14.740765,14.740765 0 1 1 29.48153,0 z"
         transform="translate(94.749376,209.50594)"
         id="path9893"
         inkscape:connector-curvature="0" />
      <path
         d="m 119.81876,422.64473 c 0,19.65305 36.26494,35.58499 81.00002,35.58499 44.73505,0 80.99998,-15.93194 80.99998,-35.13362 0,31.43304 -36.26495,56.54863 -81.00001,56.54863 -44.73505,0 -80.99999,-25.11559 -80.99999,-56.09726 l 0,-0.45138 z"
         style="fill:#000000;fill-opacity:1;stroke:#000000;stroke-width:2.02076459;stroke-linejoin:round;stroke-miterlimit:4;stroke-opacity:1;stroke-dashoffset:0"
         id="path9895"
         inkscape:connector-curvature="0" />
    </g>
    <g
       id="use9897"
       transform="matrix(0.18117334,0,0,0.18117334,-11.358661,605.18922)">
      <path
         transform="translate(293.68477,-208.02409)"
         d="m 355.06007,389.66882 a 117.92609,117.92609 0 1 1 -235.85217,0 117.92609,117.92609 0 1 1 235.85217,0 z"
         style="fill:#f0e442;fill-opacity:1;stroke:#000000;stroke-width:1.34717631;stroke-miterlimit:4;stroke-opacity:1;stroke-dasharray:none;stroke-dashoffset:0"
         id="path9901"
         inkscape:connector-curvature="0" />
      <path
         transform="translate(348.48195,-30.494059)"
         d="m 158.94386,167.2756 a 14.740765,14.740765 0 1 1 -29.48153,0 14.740765,14.740765 0 1 1 29.48153,0 z"
         style="fill:#000000;fill-opacity:1;stroke:#000000;stroke-width:3.3679409;stroke-miterlimit:4;stroke-opacity:1;stroke-dasharray:none;stroke-dashoffset:0"
         id="path9903"
         inkscape:connector-curvature="0" />
      <path
         style="fill:#000000;fill-opacity:1;stroke:#000000;stroke-width:3.3679409;stroke-miterlimit:4;stroke-opacity:1;stroke-dasharray:none;stroke-dashoffset:0"
         d="m 158.94386,167.2756 a 14.740765,14.740765 0 1 1 -29.48153,0 14.740765,14.740765 0 1 1 29.48153,0 z"
         transform="translate(424.74938,-30.494059)"
         id="path9905"
         inkscape:connector-curvature="0" />
      <rect
         y="204.86218"
         x="470.81876"
         height="10"
         width="120"
         style="fill:#000000;fill-opacity:1;stroke:#000000;stroke-width:3.3679409;stroke-linejoin:round;stroke-miterlimit:4;stroke-opacity:1;stroke-dasharray:none;stroke-dashoffset:0"
         id="rect9907" />
    </g>
    <g
       id="use9909"
       transform="matrix(0.18117334,0,0,0.18117334,48.428541,711.04175)">
      <path
         transform="translate(-36.315228,-238.02412)"
         d="m 355.06007,389.66882 a 117.92609,117.92609 0 1 1 -235.85217,0 117.92609,117.92609 0 1 1 235.85217,0 z"
         style="fill:#0072b2;fill-opacity:1;stroke:#000000;stroke-width:1.34717631;stroke-miterlimit:4;stroke-opacity:1;stroke-dasharray:none;stroke-dashoffset:0"
         id="path9913"
         inkscape:connector-curvature="0" />
      <path
         transform="translate(18.481953,-60.49409)"
         d="m 158.94386,167.2756 a 14.740765,14.740765 0 1 1 -29.48153,0 14.740765,14.740765 0 1 1 29.48153,0 z"
         style="fill:#000000;fill-opacity:1;stroke:#000000;stroke-width:3.3679409;stroke-miterlimit:4;stroke-opacity:1;stroke-dasharray:none;stroke-dashoffset:0"
         id="path9915"
         inkscape:connector-curvature="0" />
      <path
         style="fill:#000000;fill-opacity:1;stroke:#000000;stroke-width:3.3679409;stroke-miterlimit:4;stroke-opacity:1;stroke-dasharray:none;stroke-dashoffset:0"
         d="m 158.94386,167.2756 a 14.740765,14.740765 0 1 1 -29.48153,0 14.740765,14.740765 0 1 1 29.48153,0 z"
         transform="translate(94.749376,-60.49409)"
         id="path9917"
         inkscape:connector-curvature="0" />
      <path
         d="m 119.81876,209.6447 c 0,-19.65305 36.26494,-35.58499 81.00001,-35.58499 44.73506,0 81,15.93194 81,35.13362 0,-31.43304 -36.26495,-56.54863 -81.00001,-56.54863 -44.73506,0 -81,25.11559 -81,56.09726 l 0,0.45138 z"
         style="fill:#000000;fill-opacity:1;stroke:#000000;stroke-width:2.02076459;stroke-linejoin:round;stroke-miterlimit:4;stroke-opacity:1;stroke-dashoffset:0"
         id="path9919"
         inkscape:connector-curvature="0" />
    </g>
    <g
       id="g10029"
       transform="translate(0,-16.99669)">
      <path
         d="m 106.17661,855.89431 a 21.365064,21.365064 0 1 1 -42.730129,0 21.365064,21.365064 0 1 1 42.730129,0 z"
         style="fill:#009e73;fill-opacity:1;stroke:#000000;stroke-width:0.24407244;stroke-miterlimit:4;stroke-opacity:1;stroke-dasharray:none;stroke-dashoffset:0"
         id="path9925"
         inkscape:connector-curvature="0" />
      <path
         d="m 80.573366,848.55407 a 2.6706336,3.4584059 0 1 1 -5.341267,0 2.6706336,3.4584059 0 1 1 5.341267,0 z"
         style="fill:#000000;fill-opacity:1;stroke:#000000;stroke-width:0.61018109;stroke-miterlimit:4;stroke-opacity:1;stroke-dasharray:none;stroke-dashoffset:0"
         id="path9927"
         inkscape:connector-curvature="0" />
      <path
         style="fill:#000000;fill-opacity:1;stroke:#000000;stroke-width:0.61018109;stroke-miterlimit:4;stroke-opacity:1;stroke-dasharray:none;stroke-dashoffset:0"
         d="m 94.390991,848.55407 a 2.6706336,3.4584059 0 1 1 -5.341267,0 2.6706336,3.4584059 0 1 1 5.341267,0 z"
         id="path9929"
         inkscape:connector-curvature="0" />
      <path
         d="m 98.70414,867.4122 a 13.892594,10.8704 0 1 0 -27.785188,0"
         style="fill:#000000;fill-opacity:1;stroke:#000000;stroke-width:0.61018109;stroke-linejoin:round;stroke-miterlimit:4;stroke-opacity:1;stroke-dasharray:none;stroke-dashoffset:0"
         id="path9932"
         inkscape:connector-curvature="0" />
    </g>
  </g>
  <g
     inkscape:groupmode="layer"
     id="layer2"
     inkscape:label="page"
     style="display:none">
    <rect
       style="color:#000000;fill:none;stroke:#c8c8ff;stroke-width:3;stroke-linecap:butt;stroke-linejoin:miter;stroke-miterlimit:1;stroke-opacity:1;stroke-dasharray:none;stroke-dashoffset:0;marker:none;visibility:visible;display:inline;overflow:visible;enable-background:accumulate"
       id="rect10838"
       width="1049.3622"
       height="741.09448"
       x="1.4999999"
       y="1.4999915" />
  </g>
</svg>
